<svg width="93" height="138" viewBox="0 0 93 138" fill="none" xmlns="http://www.w3.org/2000/svg">
<path d="M30.1091 4.99575L47.8734 0.0507812L82.6866 16.1739L92.3828 36.6083L90.8999 61.2085L84.6051 76.7914L68.8941 90.7121C66.7059 94.026 64.5074 97.3296 62.3193 100.644C58.5237 106.648 54.7178 112.653 50.9223 118.657C47.8423 123.156 44.7623 127.654 41.6823 132.152L30.9802 136.058L21.0454 137.419L8.84991 126.563L3.42624 112.996C3.97586 109.848 4.53586 106.711 5.08549 103.563C5.35511 97.4127 5.62474 91.2731 5.89437 85.123C5.55215 80.1157 5.2203 75.1084 4.87808 70.1011L0.0144005 50.7368L3.73734 33.18L17.4365 11.4886L30.1091 4.99575Z" fill="white"/>
<path d="M46.3801 118.252C46.4838 117.899 46.5771 117.546 46.6601 117.182H46.6705L53.1623 95.7194L16.161 84.4997L9.66917 105.973H9.71065C9.57583 106.326 9.46176 106.669 9.34769 107.022C6.88992 115.146 11.5047 123.904 19.8425 127.872C19.5936 128.069 19.4173 128.308 19.3239 128.599C18.9506 129.846 20.475 131.425 22.7358 132.111C24.9965 132.796 27.1432 132.339 27.5165 131.093C27.6306 130.719 27.5683 130.324 27.3817 129.929C36.0305 130.656 44.0364 126.002 46.3697 118.263" fill="#424242"/>
<path d="M87.1251 61.998C93.8554 39.7144 81.2866 16.1947 59.0423 9.45246C36.8083 2.69987 13.3195 15.3012 6.58918 37.5744C3.00105 49.4382 5.79067 61.1669 10.8099 71.5036C12.0855 74.1319 12.3966 77.2692 11.7018 80.2508C11.121 82.7856 8.68399 90.2238 8.68399 90.2238C7.1077 95.4389 10.0529 100.945 15.2484 102.514L43.6112 111.115C48.8171 112.694 54.3134 109.744 55.8793 104.539C55.8793 104.539 57.9741 96.9972 58.8971 94.5559C59.9237 91.834 61.8422 89.5174 64.2585 88.1461C74.4111 82.37 83.4644 74.0695 87.1147 61.998M63.2422 88.6032C63.2422 88.6032 63.3252 88.572 63.3563 88.5512C63.3148 88.572 63.2733 88.5824 63.2422 88.6032ZM62.06 89.0811C62.1845 89.0395 62.2985 88.9876 62.423 88.946C62.2985 88.998 62.1845 89.0395 62.06 89.0811Z" fill="#FFD503"/>
<path d="M59.146 16.7037C64.6111 18.5529 69.4644 21.9292 73.2703 26.2508C77.0762 30.5725 79.8451 35.8187 81.1725 41.4286C81.9295 44.5971 82.2095 47.8695 81.971 51.1211C81.9295 51.6925 82.811 51.7237 82.8525 51.1523C83.2777 45.2412 82.0125 39.2885 79.4407 33.9592C76.8688 28.6402 73.0007 23.9342 68.2304 20.4436C65.5444 18.4802 62.5682 16.9219 59.4156 15.8518C58.8763 15.6648 58.6171 16.5167 59.1563 16.6933" fill="white"/>
<path d="M43.8912 114.253C41.7342 115.364 39.4009 115.956 36.9742 115.904C34.4542 115.852 31.9965 115.229 29.6009 114.502C29.0617 114.336 28.8024 115.177 29.3417 115.343C31.8513 116.102 34.4542 116.756 37.0883 116.777C39.6186 116.798 42.066 116.175 44.306 115.011C44.8142 114.751 44.389 113.972 43.8808 114.232" fill="white"/>
<path d="M42.5846 118.585C40.4275 119.696 38.0942 120.288 35.6676 120.236C33.1476 120.185 30.6898 119.561 28.2943 118.834C27.755 118.668 27.4957 119.509 28.035 119.675C30.5446 120.434 33.1476 121.088 35.7816 121.109C38.312 121.13 40.7594 120.507 42.9994 119.343C43.5075 119.083 43.0823 118.304 42.5742 118.564" fill="white"/>
<path d="M41.2675 122.917C39.1105 124.028 36.7772 124.62 34.3505 124.569C31.8305 124.517 29.3728 123.893 26.9772 123.166C26.438 123 26.1787 123.841 26.718 124.008C29.2276 124.766 31.8305 125.42 34.4646 125.441C36.995 125.462 39.4424 124.839 41.6823 123.675C42.1905 123.415 41.7653 122.636 41.2572 122.896" fill="white"/>
<path fill-rule="evenodd" clip-rule="evenodd" d="M37.8227 59.82L39.0306 77.5064L48.1252 63.6284L50.4908 79.3466L65.9491 64.5934L43.5071 111.152L43.1239 110.967L64.559 66.5084L50.1923 80.2199L47.8705 64.7931L38.6926 78.7982L37.5776 62.4723L26.481 105.92L26.0693 105.814L37.8227 59.82Z" fill="black"/>
</svg>
