<svg width="93" height="139" viewBox="0 0 93 139" fill="none" xmlns="http://www.w3.org/2000/svg">
<path d="M30.1091 5.78482L47.8734 0.839844L82.6866 16.9629L92.3828 37.3973L90.8999 61.9975L84.6051 77.5804L68.8941 91.5011C66.7059 94.8151 64.5074 98.1187 62.3193 101.433C58.5237 107.437 54.7178 113.442 50.9223 119.446C47.8423 123.945 44.7623 128.443 41.6823 132.941L30.9802 136.847L21.0454 138.208L8.84991 127.352L3.42624 113.785C3.97586 110.637 4.53586 107.5 5.08549 104.352C5.35511 98.2018 5.62474 92.0621 5.89437 85.9121C5.55215 80.9048 5.2203 75.8975 4.87808 70.8902L0.0144005 51.5258L3.73734 33.9691L17.4365 12.2777L30.1091 5.78482Z" fill="white"/>
<path d="M46.3801 119.041C46.4838 118.688 46.5771 118.335 46.6601 117.971H46.6705L53.1623 96.5084L16.161 85.2888L9.66917 106.762H9.71065C9.57583 107.115 9.46176 107.458 9.34769 107.811C6.88992 115.935 11.5047 124.693 19.8425 128.661C19.5936 128.859 19.4173 129.097 19.3239 129.388C18.9506 130.635 20.475 132.214 22.7358 132.9C24.9965 133.585 27.1432 133.128 27.5165 131.882C27.6306 131.508 27.5683 131.113 27.3817 130.718C36.0305 131.445 44.0364 126.791 46.3697 119.052" fill="#424242"/>
<path d="M87.1251 62.7871C93.8554 40.5035 81.2866 16.9837 59.0423 10.2415C36.8083 3.48894 13.3195 16.0903 6.58918 38.3635C3.00105 50.2272 5.79067 61.956 10.8099 72.2926C12.0855 74.9209 12.3966 78.0583 11.7018 81.0398C11.121 83.5746 8.68399 91.0129 8.68399 91.0129C7.1077 96.228 10.0529 101.734 15.2484 103.303L43.6112 111.904C48.8171 113.483 54.3134 110.533 55.8793 105.328C55.8793 105.328 57.9741 97.7862 58.8971 95.3449C59.9237 92.6231 61.8422 90.3065 64.2585 88.9352C74.4111 83.1591 83.4644 74.8586 87.1147 62.7871M63.2422 89.3923C63.2422 89.3923 63.3252 89.3611 63.3563 89.3403C63.3148 89.3611 63.2733 89.3715 63.2422 89.3923ZM62.06 89.8701C62.1845 89.8286 62.2985 89.7766 62.423 89.7351C62.2985 89.787 62.1845 89.8286 62.06 89.8701Z" fill="url(#paint0_radial_2006_351)"/>
<path d="M59.146 17.4928C64.6111 19.3419 69.4644 22.7182 73.2703 27.0399C77.0762 31.3615 79.8451 36.6078 81.1725 42.2176C81.9295 45.3862 82.2095 48.6586 81.971 51.9102C81.9295 52.4816 82.811 52.5127 82.8525 51.9414C83.2777 46.0302 82.0125 40.0776 79.4407 34.7482C76.8688 29.4293 73.0007 24.7232 68.2304 21.2327C65.5444 19.2692 62.5682 17.7109 59.4156 16.6409C58.8763 16.4539 58.6171 17.3058 59.1563 17.4824" fill="white"/>
<path d="M43.8912 115.042C41.7342 116.153 39.4009 116.745 36.9742 116.693C34.4542 116.642 31.9965 116.018 29.6009 115.291C29.0617 115.125 28.8024 115.966 29.3417 116.133C31.8513 116.891 34.4542 117.545 37.0883 117.566C39.6186 117.587 42.066 116.964 44.306 115.8C44.8142 115.54 44.389 114.761 43.8808 115.021" fill="white"/>
<path d="M42.5846 119.374C40.4275 120.485 38.0942 121.077 35.6676 121.026C33.1476 120.974 30.6898 120.35 28.2943 119.623C27.755 119.457 27.4957 120.298 28.035 120.465C30.5446 121.223 33.1476 121.877 35.7816 121.898C38.312 121.919 40.7594 121.296 42.9994 120.132C43.5075 119.872 43.0823 119.093 42.5742 119.353" fill="white"/>
<path d="M41.2675 123.706C39.1105 124.817 36.7772 125.41 34.3505 125.358C31.8305 125.306 29.3728 124.682 26.9772 123.955C26.438 123.789 26.1787 124.63 26.718 124.797C29.2276 125.555 31.8305 126.209 34.4646 126.23C36.995 126.251 39.4424 125.628 41.6823 124.464C42.1905 124.204 41.7653 123.425 41.2572 123.685" fill="white"/>
<path fill-rule="evenodd" clip-rule="evenodd" d="M37.8227 60.609L39.0306 78.2954L48.1252 64.4174L50.4908 80.1357L65.9491 65.3825L43.5071 111.941L43.1239 111.757L64.559 67.2974L50.1923 81.0089L47.8705 65.5822L38.6926 79.5872L37.5776 63.2613L26.481 106.709L26.0693 106.603L37.8227 60.609Z" fill="black"/>
<defs>
<radialGradient id="paint0_radial_2006_351" cx="0" cy="0" r="1" gradientUnits="userSpaceOnUse" gradientTransform="translate(46.1986 69.5241) rotate(90) scale(68.6842 46.1842)">
<stop stop-color="white"/>
<stop offset="1" stop-color="#B8B8B8"/>
</radialGradient>
</defs>
</svg>
