<svg width="1217" height="812" viewBox="0 0 1217 812" fill="none" xmlns="http://www.w3.org/2000/svg">
<path d="M1014.41 405.915L608.994 0.503889L203.562 405.915L608.994 811.326L1014.41 405.915Z" fill="white"/>
<path opacity="0.4" d="M1013.53 811.319L810.828 608.613L608.112 811.319L1013.53 811.319Z" fill="white"/>
<path opacity="0.4" d="M1013.53 0.509232L810.828 203.215L608.112 0.509214L1013.53 0.509232Z" fill="white"/>
<path opacity="0.4" d="M608.133 811.323L405.427 608.617L202.711 811.323L608.133 811.323Z" fill="white"/>
<path opacity="0.4" d="M608.132 0.509232L405.427 203.215L202.711 0.509214L608.132 0.509232Z" fill="white"/>
<path opacity="0.4" d="M1216.25 608.612L1013.54 405.906L810.824 608.612L1216.25 608.612Z" fill="white"/>
<path opacity="0.4" d="M1216.25 203.201L1013.54 405.906L810.824 203.201L1216.25 203.201Z" fill="white"/>
<path opacity="0.4" d="M405.422 608.608L202.716 405.902L0.00022312 608.608L405.422 608.608Z" fill="white"/>
<path opacity="0.4" d="M405.422 203.197L202.716 405.902L0.000240842 203.197L405.422 203.197Z" fill="white"/>
</svg>
