<svg width="33" height="51" viewBox="0 0 33 51" fill="none" xmlns="http://www.w3.org/2000/svg">
<path d="M12.0626 50.8478C11.0958 50.4012 10.1125 50.0107 9.13687 49.5867C9.09072 49.5696 9.04905 49.4868 9.03262 49.434C9.00652 49.1754 8.98042 48.9169 8.95323 48.6475C8.94671 48.5829 8.88196 48.4914 8.81274 48.4658C7.91844 48.0772 7.01424 47.7004 6.12103 47.3226C6.01666 47.2787 5.95625 47.2304 5.94429 47.1119C5.85512 46.2284 5.76486 45.3342 5.6647 44.4519C5.65165 44.3226 5.68028 44.2761 5.82101 44.2402C6.68848 44.0329 7.54386 43.816 8.43223 43.5957C8.23866 41.6779 8.0451 39.7602 7.85045 37.8317C7.83414 37.6701 7.87376 37.6225 8.03647 37.5843C8.89295 37.3782 9.76259 37.1924 10.6147 36.9432L10.0144 30.996C10.8907 30.7661 11.7703 30.5685 12.6466 30.3385C12.7015 30.333 12.7698 30.239 12.7654 30.1959C12.746 29.8932 12.7056 29.6034 12.673 29.2802C11.2074 29.6131 9.76823 29.9869 8.30486 30.3414C8.02339 30.4134 7.75075 30.4627 7.47037 30.5454C7.27685 30.6084 7.09879 30.6046 6.90103 30.5158C6.01882 30.1368 5.11679 29.7816 4.23457 29.4027C4.17635 29.3759 4.13576 29.3038 4.11824 29.2403C4.09105 28.9709 4.06278 28.6908 4.03559 28.4215C4.02581 28.3245 3.98739 28.274 3.89401 28.229C3.12933 27.9143 2.35258 27.5901 1.5879 27.2754C1.43738 27.2144 1.28686 27.1534 1.13526 27.0817C1.08802 27.0538 1.03753 26.9936 1.03318 26.9505C0.947386 25.9905 0.804458 25.0145 0.762639 24.0501C1.61911 23.8439 2.49648 23.6248 3.36395 23.4175C3.51785 23.402 3.53222 23.3243 3.50927 23.2069C3.41466 22.2696 3.32005 21.3323 3.22545 20.395C4.15778 20.1703 5.07913 19.9467 6.01037 19.7112L5.40684 13.7317C6.33918 13.507 7.24953 13.2845 8.18187 13.0598C8.11033 12.131 7.99483 11.2067 7.90022 10.2694C7.88499 10.1185 7.91145 10.0506 8.07417 10.0124C8.94163 9.80508 9.81127 9.61936 10.6755 9.37976C10.582 8.45321 10.4895 7.53743 10.396 6.61088C10.3797 6.44927 10.4072 6.39207 10.5809 6.35277C11.4275 6.15849 12.284 5.95232 13.1504 5.73427L12.8524 2.78224C15.7253 2.08958 18.5762 1.39913 21.4391 0.718353C22.2307 0.529617 23.0103 0.331217 23.8029 0.153256C23.8898 0.133605 23.9898 0.134393 24.0711 0.169722C24.9611 0.515241 25.8521 0.871533 26.741 1.20628C26.9256 1.27472 27.0453 1.36059 27.045 1.57828C27.036 1.81863 27.094 2.0631 27.1069 2.30124C27.1199 2.43053 27.1704 2.49073 27.2858 2.5335C28.1406 2.8608 28.9976 3.20965 29.8524 3.53695C30.026 3.6065 30.0995 3.67526 30.1191 3.86919C30.1895 4.78718 30.304 5.70074 30.3964 6.61652C29.508 6.83679 28.6516 7.04295 27.7621 7.25245C27.6214 7.28842 27.6301 7.37461 27.6409 7.48235C27.7356 8.41967 27.828 9.33545 27.9226 10.2728C27.0342 10.493 26.1788 10.71 25.2883 10.9087C25.1366 10.9458 25.1464 11.0428 25.1572 11.1505C25.2431 12.0016 25.3301 12.8635 25.4161 13.7147C25.4313 13.8655 25.4158 13.9324 25.2311 13.9728C24.4494 14.1496 23.6809 14.3469 22.9003 14.5345C22.6617 14.5913 22.6518 14.6032 22.6768 14.851C22.7627 15.7021 22.8486 16.5532 22.9345 17.4044C22.9497 17.5552 22.9101 17.6027 22.7584 17.6398C21.9448 17.8308 21.1312 18.0217 20.3198 18.2342C20.2648 18.2398 20.1856 18.3348 20.1899 18.3779C20.2105 18.6915 20.2519 18.992 20.2856 19.326C21.5544 19.0238 22.7891 18.7142 24.0469 18.4131C24.535 18.2985 25.0221 18.1732 25.5103 18.0586C25.651 18.0226 25.784 18.0201 25.9345 18.0811C26.8376 18.447 27.7407 18.813 28.6428 19.1682C28.7702 19.2206 28.8207 19.2808 28.8228 19.4112C28.8499 19.6806 28.8661 19.951 28.9032 20.2085C28.9098 20.2731 28.9745 20.3645 29.0437 20.3902C29.9479 20.7669 30.862 21.1318 31.7652 21.4977C31.8113 21.5149 31.8739 21.5847 31.8793 21.6386C31.975 22.5867 32.0707 23.5348 32.1686 24.5044C31.3022 24.7225 30.4578 24.9383 29.5892 25.1348C29.4375 25.1719 29.4001 25.241 29.4142 25.381C29.5077 26.3076 29.6013 27.2341 29.6948 28.1607C28.8163 28.3691 27.984 28.5946 27.1165 28.8019C26.9527 28.8293 26.9274 28.908 26.9415 29.0481C27.0274 29.8992 27.1144 30.7611 27.2003 31.6122C27.2155 31.7631 27.2001 31.8299 27.0154 31.8704C26.2227 32.0483 25.4432 32.2467 24.6516 32.4355C24.4998 32.4725 24.4503 32.532 24.4666 32.6936C24.5601 33.6201 24.6526 34.5359 24.7461 35.4624C23.8577 35.6827 23.0023 35.8996 22.1129 36.1091C21.9721 36.1451 21.9688 36.2216 21.9796 36.3294C22.0743 37.2667 22.1667 38.1825 22.2613 39.1198C21.4048 39.326 20.5714 39.5407 19.7139 39.7361C19.5401 39.7754 19.4917 39.8456 19.5091 40.018C19.6015 40.9337 19.694 41.8495 19.7864 42.7653C18.92 42.9833 18.0756 43.1992 17.2181 43.3946C17.0663 43.4316 17.0168 43.4911 17.0331 43.6527C17.1267 44.5792 17.2191 45.495 17.3126 46.4215C16.4352 46.6407 15.5689 46.8588 14.6904 47.0671C14.5497 47.1031 14.5364 47.1915 14.5483 47.31C14.6419 48.2366 14.7354 49.1631 14.8289 50.0897C13.8976 50.3252 12.9961 50.525 12.0791 50.7917L12.0461 50.795L12.0626 50.8478ZM16.186 6.98423C16.2708 7.82459 16.3535 8.6434 16.4361 9.46222C16.4992 10.0871 16.606 9.93483 15.9452 10.0995C15.2415 10.2793 14.5467 10.4365 13.843 10.6164C13.6737 10.6988 13.7185 10.9228 13.7348 11.0844C13.8131 11.8602 13.8914 12.6359 13.9697 13.4116C13.9871 13.584 13.9397 13.6649 13.777 13.7031C13.0393 13.8755 12.3126 14.0468 11.5759 14.23C11.1647 14.3368 11.2198 14.2224 11.2523 14.6545C11.4361 16.4753 11.6188 18.2853 11.8025 20.1061C11.8167 20.2461 11.7682 20.3163 11.6374 20.3404C10.8348 20.5303 10.0333 20.7309 9.23071 20.9207C9.08998 20.9567 9.05036 21.0042 9.06449 21.1443C9.15258 22.017 9.23957 22.8789 9.32765 23.7516C9.34614 23.9347 9.27354 23.9856 9.13281 24.0215C8.33021 24.2114 7.5287 24.412 6.72611 24.6019C6.58537 24.6378 6.54575 24.6854 6.55989 24.8254C6.67757 25.7713 6.72712 26.7023 6.86678 27.646C10.584 26.7375 14.2694 25.8431 17.9757 24.9357C18.2011 26.8393 18.3596 28.7389 18.5729 30.6328C18.5936 30.8375 18.5232 30.9099 18.3495 30.9492C17.5678 31.1261 16.8014 31.3449 16.0296 31.5099C15.8449 31.5503 15.8086 31.6302 15.8249 31.7918C16.0119 33.6449 16.1989 35.498 16.3871 37.3619C16.399 37.4804 16.3825 37.5365 16.2418 37.5724C15.493 37.7459 14.7344 37.9314 13.9999 38.1361C13.5887 38.2429 13.6438 38.1285 13.6653 38.5617C13.8415 40.307 14.0188 42.0632 14.1949 43.8085C14.208 43.9378 14.2726 44.1381 14.1252 44.2183C13.9526 44.2683 13.7668 44.298 13.5942 44.3481C12.9334 44.5127 12.2847 44.687 11.6228 44.8409C11.4821 44.8769 11.4776 44.9426 11.4885 45.0503C11.5941 45.9866 11.6547 46.9164 11.7932 47.8493C12.642 47.6766 13.4732 47.4403 14.3077 47.2364C14.5683 47.1774 14.5683 47.1774 14.5411 46.9081C14.4563 46.0677 14.3725 45.2381 14.2877 44.3978C14.2692 44.2146 14.3418 44.1638 14.4826 44.1278C15.2522 43.9413 16.0207 43.744 16.7914 43.5682C16.9981 43.5256 17.0334 43.435 17.0149 43.2518C16.929 42.4007 16.842 41.5388 16.7561 40.6876C16.7452 40.5799 16.7617 40.5238 16.8926 40.4997C17.6512 40.3143 18.4208 40.1278 19.1784 39.9316C19.5566 39.8281 19.5125 39.9414 19.4811 39.5201C19.3973 38.6906 19.3136 37.861 19.2299 37.0314C19.2201 36.9344 19.2136 36.8698 19.3433 36.8349C20.1459 36.6451 20.9584 36.4433 21.761 36.2535C21.9237 36.2153 21.9831 36.144 21.9657 35.9716C21.8787 35.1097 21.8137 34.2456 21.7267 33.3837C21.7126 33.2436 21.7632 33.195 21.893 33.1601C22.6846 32.9714 23.4641 32.773 24.2557 32.5842C24.4294 32.5449 24.4789 32.4855 24.4604 32.3024C24.3734 31.4405 24.2865 30.5786 24.1995 29.7166C24.1875 29.5981 24.204 29.542 24.3448 29.5061C25.0935 29.3326 25.8411 29.1483 26.5877 28.9532C26.9659 28.8497 26.9537 28.9489 26.9102 28.5179C26.8265 27.6884 26.7438 26.8695 26.6601 26.04C26.6503 25.943 26.6438 25.8783 26.7735 25.8435C27.5761 25.6536 28.3776 25.453 29.1802 25.2632C29.3429 25.225 29.4144 25.1633 29.396 24.9802C29.2805 24.0559 29.232 23.1356 29.0945 22.2135C26.3195 22.8854 23.5774 23.554 20.7925 24.2378L20.4935 21.275C19.6206 21.4284 18.7695 21.6884 17.912 21.8838C17.8031 21.9057 17.7074 21.948 17.69 21.7756C17.6009 20.8922 17.5106 19.9979 17.4215 19.1145C17.4106 19.0067 17.4491 18.9484 17.558 18.9266C18.3605 18.7367 19.1731 18.535 19.9756 18.3451C20.1274 18.3081 20.211 18.2561 20.1914 18.0622C20.1044 17.2003 20.0174 16.3383 19.9304 15.4764C19.9174 15.3471 19.9548 15.2781 20.0845 15.2432C20.8761 15.0545 21.6667 14.855 22.4703 14.6759C22.655 14.6355 22.6925 14.5664 22.6762 14.4048C22.5925 13.5752 22.5098 12.7564 22.4261 11.9268C22.3956 11.6251 22.3956 11.6251 22.7101 11.5499C23.4687 11.3645 24.2152 11.1694 24.975 10.9948C25.2146 10.9488 25.1455 10.8143 25.1281 10.6419C25.0433 9.80154 24.9574 8.95041 24.8726 8.11005C24.8617 8.00231 24.8782 7.94622 25.0091 7.92213C25.185 7.90438 25.3565 7.84353 25.5291 7.79346C26.158 7.64291 26.7979 7.49126 27.4378 7.3396C27.5895 7.30252 27.6379 7.23233 27.6106 7.07183C27.516 6.13451 27.4236 5.21873 27.329 4.28141C23.6106 5.17913 19.9252 6.07352 16.2168 6.95935L16.186 6.98423Z" fill="black"/>
<path d="M16.186 6.98423C19.8934 6.08762 23.5798 5.204 27.2982 4.30628C27.3928 5.24361 27.4852 6.15939 27.5798 7.09671C27.5961 7.25832 27.5477 7.32851 27.407 7.36448C26.7671 7.51613 26.1382 7.66668 25.4983 7.81833C25.3246 7.85763 25.1531 7.91848 24.9783 7.94701C24.8464 7.96032 24.8298 8.01641 24.8418 8.13492C24.9266 8.97528 25.0125 9.82642 25.0973 10.6668C25.1147 10.8392 25.1728 10.9748 24.9441 11.0196C24.1844 11.1943 23.4269 11.3904 22.6793 11.5747C22.3648 11.65 22.3637 11.6392 22.3953 11.9517C22.479 12.7813 22.5616 13.6001 22.6454 14.4297C22.6628 14.602 22.6242 14.6604 22.4395 14.7008C21.6469 14.8787 20.8563 15.0782 20.0537 15.2681C19.924 15.3029 19.8855 15.3613 19.8996 15.5013C19.9866 16.3632 20.0736 17.2251 20.1606 18.087C20.1791 18.2702 20.1076 18.3318 19.9448 18.37C19.1422 18.5599 18.3297 18.7616 17.5271 18.9514C17.4183 18.9733 17.3798 19.0316 17.3906 19.1394C17.4798 20.0228 17.5701 20.917 17.6592 21.8005C17.6766 21.9729 17.7734 21.9413 17.8812 21.9087C18.7497 21.7122 19.5908 21.464 20.4627 21.2999L20.7617 24.2627C23.5477 23.5897 26.2898 22.9211 29.0637 22.2384C29.2012 23.1605 29.2497 24.0807 29.3652 25.0051C29.3836 25.1882 29.3121 25.2499 29.1494 25.288C28.3468 25.4779 27.5453 25.6785 26.7427 25.8684C26.624 25.9021 26.6195 25.9679 26.6293 26.0648C26.713 26.8944 26.7957 27.7132 26.8794 28.5428C26.9218 28.963 26.9351 28.8746 26.5569 28.9781C25.8103 29.1731 25.0627 29.3574 24.314 29.531C24.1842 29.5658 24.1567 29.623 24.1687 29.7415C24.2556 30.6034 24.3426 31.4653 24.4296 32.3272C24.447 32.4996 24.3876 32.5709 24.2249 32.6091C23.4333 32.7979 22.6527 32.9855 21.8622 33.185C21.7434 33.2187 21.6818 33.2685 21.6959 33.4086C21.7829 34.2705 21.8479 35.1346 21.9349 35.9965C21.9523 36.1689 21.8929 36.2402 21.7302 36.2784C20.9276 36.4682 20.1151 36.6699 19.3125 36.8598C19.1828 36.8947 19.1893 36.9593 19.1991 37.0563C19.2828 37.8858 19.3665 38.7154 19.4503 39.545C19.4916 39.9544 19.5368 39.8519 19.1475 39.9565C18.39 40.1527 17.6204 40.3392 16.8618 40.5246C16.732 40.5595 16.7144 40.6048 16.7253 40.7125C16.8112 41.5637 16.8982 42.4256 16.9841 43.2767C17.0037 43.4706 16.9673 43.5505 16.7606 43.5931C15.9899 43.7689 15.2214 43.9661 14.4517 44.1527C14.311 44.1886 14.2274 44.2406 14.2569 44.4226C14.3527 45.2619 14.4255 46.0926 14.5103 46.933C14.5375 47.2023 14.5364 47.1915 14.2769 47.2613C13.4303 47.4555 12.6101 47.6907 11.7624 47.8742C11.6249 46.9521 11.5743 46.0103 11.4577 45.0752C11.4468 44.9675 11.4403 44.9028 11.592 44.8658C12.2539 44.7119 12.9026 44.5376 13.5634 44.3729C13.7371 44.3336 13.9218 44.2932 14.0944 44.2431C14.2418 44.163 14.1673 43.9746 14.1641 43.8334C13.9879 42.0881 13.8107 40.3319 13.6345 38.5866C13.602 38.1545 13.5579 38.2678 13.9691 38.161C14.7157 37.9659 15.4633 37.7816 16.2109 37.5973C16.3517 37.5613 16.3682 37.5052 16.3563 37.3867C16.1692 35.5336 15.9822 33.6805 15.7941 31.8167C15.7777 31.655 15.8031 31.5763 15.9988 31.5348C16.7805 31.3579 17.548 31.1499 18.3187 30.9741C18.4935 30.9456 18.5738 30.8613 18.5421 30.6577C18.3277 28.753 18.1802 26.8523 17.9449 24.9606C14.2386 25.8679 10.5423 26.7634 6.83598 27.6708C6.68532 26.7283 6.64677 25.7962 6.52908 24.8503C6.51495 24.7102 6.54358 24.6638 6.6953 24.6267C7.4979 24.4369 8.3005 24.247 9.102 24.0464C9.24274 24.0105 9.32633 23.9585 9.29685 23.7764C9.20877 22.9038 9.12177 22.0418 9.03369 21.1692C9.01955 21.0291 9.05917 20.9816 9.19991 20.9456C10.0025 20.7558 10.8051 20.5659 11.6066 20.3653C11.7363 20.3304 11.7859 20.271 11.7717 20.1309C11.588 18.3102 11.4053 16.5002 11.2215 14.6794C11.189 14.2473 11.1449 14.3606 11.5451 14.2549C12.2697 14.0621 13.0085 13.9004 13.7462 13.728C13.9089 13.6898 13.9563 13.6088 13.9389 13.4365C13.8606 12.6607 13.7823 11.885 13.704 11.1093C13.6877 10.9477 13.6319 10.7248 13.8122 10.6413C14.5159 10.4614 15.2107 10.3042 15.9144 10.1244C16.5752 9.95971 16.4673 10.1012 16.4053 9.48709C16.3227 8.66828 16.24 7.84947 16.1552 7.00911L16.186 6.98423Z" fill="white"/>
</svg>
