<svg width="1365" height="1117" viewBox="0 0 1365 1117" fill="none" xmlns="http://www.w3.org/2000/svg">
<path d="M426.063 -3.97619L422.582 -11.7727C349.867 19.9037 281.983 65.2361 222.703 124.519C163.423 183.802 117.946 251.837 86.2717 324.556L94.0678 328.037C125.203 256.397 170.141 189.196 228.758 130.575C287.376 71.9539 354.452 27.1363 426.087 -4.00068L426.063 -3.97619ZM1278.73 844.42L1270.93 840.939C1239.8 912.578 1194.98 979.657 1136.36 1038.28C1077.75 1096.9 1010.52 1141.86 938.912 1172.98L942.394 1180.77C1015.11 1149.1 1083.12 1103.64 1142.42 1044.33C1201.72 985.027 1247.05 917.138 1278.7 844.445L1278.73 844.42ZM228.758 1038.3C176.441 985.983 135.107 926.945 104.683 863.764L97.1567 867.515C127.875 931.53 169.749 991.352 222.728 1044.33C275.707 1097.32 335.55 1139.17 399.537 1169.91L403.288 1162.38C340.086 1131.93 281.076 1090.62 228.758 1038.3ZM1142.44 124.568C1089.44 71.5616 1029.62 29.7351 965.635 -1.00961L961.884 6.51721C1025.09 36.9677 1084.1 78.2793 1136.41 130.599C1188.73 182.919 1230.04 241.932 1260.49 305.138L1268.01 301.387C1237.3 237.372 1195.42 177.55 1142.44 124.568Z" fill="url(#paint0_radial_1_6997)"/>
<path d="M296.472 198.34C346.239 148.57 403.386 110.446 464.43 84.0164L460.263 74.5036C398.017 101.35 339.791 140.259 289.092 190.961C238.393 241.663 199.339 300.038 172.519 362.263L182.301 366.406C208.606 305.236 246.68 248.086 296.472 198.291L296.472 198.34ZM1192.46 806.737L1182.94 802.569C1156.52 863.617 1118.42 920.742 1068.63 970.537C1018.83 1020.33 961.712 1058.43 900.521 1084.71L904.664 1094.5C966.91 1067.65 1025.14 1028.74 1075.96 977.917C1126.78 927.092 1165.56 868.986 1192.41 806.737H1192.46ZM296.496 970.561C252.098 926.161 216.795 875.851 191.176 822.036L181.516 826.596C207.797 881.319 243.762 932.584 289.092 977.917C334.422 1023.25 385.685 1059.22 440.405 1085.5L444.965 1075.84C391.152 1050.22 340.87 1014.94 296.472 970.537L296.496 970.561ZM1076.05 190.961C1030.7 145.604 979.462 109.661 924.742 83.3789L920.035 92.8916C973.848 118.512 1024.13 153.793 1068.68 198.34C1113.22 242.888 1148.5 293.173 1174.12 346.989L1183.66 342.306C1157.35 287.559 1121.41 236.318 1076.08 190.985L1076.05 190.961Z" fill="url(#paint1_radial_1_6997)"/>
<path d="M502.675 171.886L497.699 160.486C446.068 182.895 397.624 215.208 355.481 257.354C313.339 299.499 280.879 348.043 258.619 399.824L269.872 404.653C291.593 354.197 323.12 307.124 364.185 266.057C405.249 224.991 452.173 193.609 502.626 171.886H502.675ZM1106.48 769.299L1095.08 764.322C1073.36 814.779 1041.95 861.729 1000.91 902.771C959.874 943.813 912.779 975.367 862.325 997.089L867.154 1008.34C918.932 986.081 967.351 953.743 1009.62 911.475C1051.88 869.207 1084.07 820.933 1106.48 769.25V769.299ZM364.258 902.796C327.631 866.167 298.531 824.708 277.325 780.455L266.194 785.701C288.063 831.156 317.849 873.841 355.555 911.548C393.261 949.256 435.918 979.02 481.396 1000.91L486.617 989.758C442.342 968.576 400.91 939.449 364.283 902.82L364.258 902.796ZM1009.64 257.378C971.935 219.671 929.278 189.906 883.801 168.013L878.432 179.021C922.683 200.473 964.286 229.477 1000.91 266.106C1037.54 302.735 1066.52 344.316 1087.99 388.595L1099 383.225C1077.13 337.721 1047.35 295.086 1009.64 257.378Z" fill="url(#paint2_radial_1_6997)"/>
<path d="M541.043 259.634L535.282 246.615C494.095 264.464 455.458 290.207 421.92 323.746C388.382 357.286 362.493 396.072 344.645 437.261L357.786 442.9C374.825 403.305 399.659 366.161 431.971 333.848C464.283 301.534 501.474 276.698 541.018 259.658L541.043 259.634ZM1020.38 731.739L1007.36 725.977C990.323 765.572 965.488 802.716 933.176 835.03C900.864 867.344 863.673 892.18 824.129 909.219L829.768 922.361C870.954 904.512 909.591 878.769 943.276 845.082C976.961 811.395 1002.56 772.903 1020.4 731.714L1020.38 731.739ZM431.996 835.054C403.165 806.222 380.218 773.614 363.572 738.726L350.824 744.757C368.107 781.116 391.888 815.048 421.944 845.107C452.001 875.165 485.931 898.897 522.264 916.207L528.295 903.458C493.408 886.81 460.827 863.887 431.971 835.03L431.996 835.054ZM943.252 323.771C913.195 293.713 879.265 269.98 842.908 252.646L836.73 265.248C871.616 282.141 904.345 304.966 933.176 333.798C962.007 362.631 984.831 395.361 1001.72 430.25L1014.32 424.071C997.015 387.737 973.259 353.78 943.227 323.746L943.252 323.771Z" fill="url(#paint3_radial_1_6997)"/>
<path d="M579.68 348.19L572.423 331.813C541.705 345.076 512.85 364.273 487.623 389.502C462.396 414.73 443.077 443.709 429.814 474.43L446.338 481.54C458.816 452.683 476.787 425.885 500.42 402.251C524.053 378.616 550.849 360.645 579.705 348.166L579.68 348.19ZM935.186 694.595L918.809 687.338C906.331 716.195 888.336 743.017 864.727 766.627C841.118 790.237 814.298 808.232 785.443 820.712L792.552 837.237C823.271 823.973 852.249 804.653 877.476 779.425C902.703 754.196 921.874 725.364 935.162 694.619L935.186 694.595ZM500.42 766.627C479.361 745.566 462.862 721.809 450.505 696.605L434.398 704.377C447.269 731.469 465.117 756.82 487.672 779.376C510.226 801.932 535.551 819.756 562.642 832.627L570.413 816.519C545.186 804.187 521.455 787.663 500.395 766.602L500.42 766.627ZM877.5 389.526C854.97 366.995 829.62 349.146 802.506 336.25L794.734 352.358C819.961 364.69 843.693 381.215 864.752 402.275C885.811 423.336 902.31 447.093 914.666 472.297L930.773 464.525C917.902 437.433 900.055 412.082 877.525 389.551L877.5 389.526Z" fill="url(#paint4_radial_1_6997)"/>
<path d="M160.996 62.8579C227.263 -3.4123 304.121 -55.6096 387.573 -92.0913L385.146 -98C300.786 -61.3957 223.242 -8.8061 156.289 58.1506C89.3362 125.107 36.6269 202.778 0 287.167L6.03093 289.716C42.3881 206.137 94.5826 129.275 160.996 62.8579ZM1365 881.858L1359.09 879.431C1322.61 962.888 1270.42 1039.75 1204.15 1106.02C1137.88 1172.29 1060.88 1224.63 977.28 1260.97L979.83 1267C1064.21 1230.37 1141.76 1177.78 1208.83 1110.7C1275.91 1043.62 1328.35 966.222 1364.98 881.833L1365 881.858ZM361.292 1248.91C287.915 1213.38 220.3 1165.33 161.021 1106.04C101.741 1046.76 53.6899 979.143 18.1418 905.738L17.9947 905.591L12.2335 908.41C48.0758 982.6 96.4948 1050.88 156.314 1110.7C216.133 1170.52 284.434 1218.97 358.595 1254.79L361.414 1249.03L361.267 1248.88L361.292 1248.91ZM1208.86 58.1506C1149.01 -1.69608 1080.74 -50.1177 1006.58 -85.9375L1003.61 -80.0288C1077.13 -44.6013 1144.85 3.55064 1204.15 62.8579C1263.45 122.165 1311.6 189.882 1347.03 263.409L1352.94 260.443C1317.1 186.253 1268.68 117.973 1208.86 58.1506Z" fill="url(#paint5_radial_1_6997)"/>
<defs>
<radialGradient id="paint0_radial_1_6997" cx="0" cy="0" r="1" gradientUnits="userSpaceOnUse" gradientTransform="translate(682.5 584.5) rotate(90) scale(682.5)">
<stop stop-color="#E56E53" stop-opacity="0.2"/>
<stop offset="0.0001" stop-color="#E56E53" stop-opacity="0.2"/>
<stop offset="0.5" stop-color="#E56E53" stop-opacity="0.2"/>
</radialGradient>
<radialGradient id="paint1_radial_1_6997" cx="0" cy="0" r="1" gradientUnits="userSpaceOnUse" gradientTransform="translate(682.5 584.5) rotate(90) scale(682.5)">
<stop stop-color="#E56E53" stop-opacity="0.2"/>
<stop offset="0.0001" stop-color="#E56E53" stop-opacity="0.2"/>
<stop offset="0.5" stop-color="#E56E53" stop-opacity="0.2"/>
</radialGradient>
<radialGradient id="paint2_radial_1_6997" cx="0" cy="0" r="1" gradientUnits="userSpaceOnUse" gradientTransform="translate(682.5 584.5) rotate(90) scale(682.5)">
<stop stop-color="#E56E53" stop-opacity="0.2"/>
<stop offset="0.0001" stop-color="#E56E53" stop-opacity="0.2"/>
<stop offset="0.5" stop-color="#E56E53" stop-opacity="0.2"/>
</radialGradient>
<radialGradient id="paint3_radial_1_6997" cx="0" cy="0" r="1" gradientUnits="userSpaceOnUse" gradientTransform="translate(682.5 584.5) rotate(90) scale(682.5)">
<stop stop-color="#E56E53" stop-opacity="0.2"/>
<stop offset="0.0001" stop-color="#E56E53" stop-opacity="0.2"/>
<stop offset="0.5" stop-color="#E56E53" stop-opacity="0.2"/>
</radialGradient>
<radialGradient id="paint4_radial_1_6997" cx="0" cy="0" r="1" gradientUnits="userSpaceOnUse" gradientTransform="translate(682.5 584.5) rotate(90) scale(682.5)">
<stop stop-color="#E56E53" stop-opacity="0.2"/>
<stop offset="0.0001" stop-color="#E56E53" stop-opacity="0.2"/>
<stop offset="0.5" stop-color="#E56E53" stop-opacity="0.2"/>
</radialGradient>
<radialGradient id="paint5_radial_1_6997" cx="0" cy="0" r="1" gradientUnits="userSpaceOnUse" gradientTransform="translate(682.5 584.5) rotate(90) scale(682.5)">
<stop stop-color="#E56E53" stop-opacity="0.2"/>
<stop offset="0.0001" stop-color="#E56E53" stop-opacity="0.2"/>
<stop offset="0.5" stop-color="#E56E53" stop-opacity="0.2"/>
</radialGradient>
</defs>
</svg>
